Coordinates
version=1
nRows=10
nColumns=40
inDegrees=yes

Units are S.I. units (second, meters, Newtons, ...)
If the header above contains a line with 'inDegrees', this indicates whether rotational values are in degrees (yes) or radians (no).

endheader
time	pelvis_tilt	pelvis_list	pelvis_rotation	pelvis_tx	pelvis_ty	pelvis_tz	hip_flexion_r	hip_adduction_r	hip_rotation_r	knee_angle_r	knee_angle_r_beta	ankle_angle_r	subtalar_angle_r	mtp_angle_r	hip_flexion_l	hip_adduction_l	hip_rotation_l	knee_angle_l	knee_angle_l_beta	ankle_angle_l	subtalar_angle_l	mtp_angle_l	lumbar_extension	lumbar_bending	lumbar_rotation	arm_flex_r	arm_add_r	arm_rot_r	elbow_flex_r	pro_sup_r	wrist_flex_r	wrist_dev_r	arm_flex_l	arm_add_l	arm_rot_l	elbow_flex_l	pro_sup_l	wrist_flex_l	wrist_dev_l
     11.65000000	      1.91095827	      4.85977800	      2.72772600	     -0.16792288	      1.09669554	      0.05236297	     36.80413439	     -8.82282847	      3.47798506	     40.69198448	      0.71020911	    -22.31605331	    -29.45733976	      0.00000000	     64.70745520	     -4.06081956	      4.59119150	    109.92491266	      1.91855166	    -11.52589147	    -28.59832521	      0.00000000	    -59.85759917	     -0.93043498	     -8.37892649	     84.75524886	     -6.86235205	     19.06781364	     45.46893810	      4.42001040	      0.00000000	      0.00000000	     84.51599903	    -28.33940566	     32.78259958	     61.41180687	     88.72608614	      0.00000000	      0.00000000
     11.65833333	      1.82469624	      5.15001304	      2.70876497	     -0.16797407	      1.09647375	      0.05238866	     35.57133543	     -9.32402956	      2.99112747	     39.60528587	      0.69124264	    -23.66364131	    -28.65967945	      0.00000000	     66.44123297	     -3.90279190	      4.37990631	    111.01093484	      1.93750632	     -9.92413966	    -28.63252691	      0.00000000	    -59.76609961	     -1.34736342	     -8.55998137	     84.64002597	     -7.19527055	     19.05226277	     45.52046866	      4.50496378	      0.00000000	      0.00000000	     84.80113508	    -28.11267708	     33.18882489	     61.29988367	     88.69825143	      0.00000000	      0.00000000
     11.66666667	      1.73612106	      5.23118387	      2.80401105	     -0.16819753	      1.09614267	      0.05260187	     34.59612080	     -9.70117530	      2.25113930	     39.05910770	      0.68171003	    -25.17596636	    -27.78090315	      0.00000000	     68.02607274	     -3.53614666	      4.54871954	    111.68931259	      1.94934624	     -8.18737340	    -28.54442307	      0.00000000	    -59.66447418	     -1.56755718	     -8.60489190	     84.49668611	     -7.56271190	     19.13119281	     45.67227287	      4.31540318	      0.00000000	      0.00000000	     85.19586287	    -27.95639076	     33.88625630	     61.13983700	     88.72953175	      0.00000000	      0.00000000
     11.67500000	      1.86120430	      5.27067322	      2.60105593	     -0.16788942	      1.09618067	      0.05296790	     33.48255632	     -9.80193713	      1.95270629	     38.72710314	      0.67591546	    -26.18294364	    -27.15043173	      0.00000000	     69.40216635	     -3.77983251	      4.33742047	    112.17868033	      1.95788732	     -7.06537801	    -28.84232354	      0.00000000	    -59.75573326	     -1.95417104	     -8.52996869	     84.31670354	     -7.79839108	     19.09057746	     45.71845517	      4.31631583	      0.00000000	      0.00000000	     85.34431663	    -27.85503450	     34.20649225	     61.19097584	     88.76876341	      0.00000000	      0.00000000
     11.68333333	      1.82220976	      5.29267699	      2.58151608	     -0.16831553	      1.09630734	      0.05301224	     32.80283739	     -9.96475169	      1.67575803	     38.86263993	      0.67828102	    -27.27445687	    -26.54174015	      0.00000000	     70.79228054	     -3.68847128	      4.25966281	    112.24492680	      1.95904354	     -5.99996815	    -29.23254608	      0.00000000	    -59.76483725	     -2.15973565	     -8.53219241	     84.26472042	     -7.98531192	     18.98448839	     45.77703970	      4.32059332	      0.00000000	      0.00000000	     85.59093618	    -27.76593973	     34.53448496	     61.17988162	     88.72789760	      0.00000000	      0.00000000
     11.69166667	      1.73059955	      5.26416598	      2.55980941	     -0.16881675	      1.09641645	      0.05308158	     32.34534705	    -10.05386284	      1.45178828	     39.33738964	      0.68656697	    -28.21362483	    -26.05867703	      0.00000000	     72.06502572	     -3.25760168	      4.29770707	    112.13216761	      1.95707552	     -4.81784846	    -29.94908190	      0.00000000	    -59.73206459	     -2.33770564	     -8.52717359	     84.19458559	     -8.08686550	     18.85846995	     45.78750133	      4.23341949	      0.00000000	      0.00000000	     85.84218429	    -27.77201705	     34.86067330	     61.23960594	     88.77698910	      0.00000000	      0.00000000
     11.70000000	      1.62361458	      5.16787447	      2.47160121	     -0.16944448	      1.09678426	      0.05317273	     31.94184242	    -10.05647521	      1.21971609	     39.91720596	      0.69668667	    -28.78761097	    -25.76551404	      0.00000000	     73.27538970	     -3.20138728	      4.25437424	    111.53371769	      1.94663060	     -4.17354069	    -30.46181702	      0.00000000	    -59.71317274	     -2.49561831	     -8.48226814	     84.21354696	     -8.06899273	     18.69507624	     45.75558542	      4.24713375	      0.00000000	      0.00000000	     86.02963239	    -27.80207077	     35.06128893	     61.28454292	     88.75428092	      0.00000000	      0.00000000
     11.70833333	      1.56554163	      5.05172026	      2.40878492	     -0.17008448	      1.09711401	      0.05303314	     31.74735710	    -10.04418856	      1.10629178	     40.99194322	      0.71544438	    -29.26978124	    -25.56467473	      0.00000000	     74.27363325	     -2.94742597	      4.29751267	    110.75056668	      1.93296204	     -3.52636329	    -31.02167708	      0.00000000	    -59.73159615	     -2.58438007	     -8.40938529	     84.27095381	     -8.00292689	     18.48646987	     45.62264111	      4.26058468	      0.00000000	      0.00000000	     86.19985378	    -27.76971576	     35.17235385	     61.27895611	     88.73563013	      0.00000000	      0.00000000
     11.71666667	      0.99679638	      5.16119780	      2.39893100	     -0.17123729	      1.09675394	      0.05269488	     32.39956662	    -10.30210851	      1.12166282	     42.50604567	      0.74187045	    -29.61473042	    -25.74220320	      0.00000000	     75.66094069	     -2.57585918	      4.05089775	    109.46232015	      1.91047789	     -4.03897291	    -32.61791107	      0.00000000	    -59.26431190	     -2.79538713	     -8.59245726	     84.29742283	     -7.78039839	     18.02499713	     45.46033163	      3.92670299	      0.00000000	      0.00000000	     86.37695133	    -27.80613612	     35.35700552	     61.28806369	     88.73192212	      0.00000000	      0.00000000
     11.72500000	      1.15921837	      4.93063294	      2.29911896	     -0.17195647	      1.09766178	      0.05252906	     32.28664791	    -10.13635751	      1.14774900	     44.14279411	      0.77043710	    -29.78302096	    -25.65285100	      0.00000000	     75.95040958	     -2.26596801	      4.37007980	    108.03140597	      1.88550373	     -3.76092633	    -32.80872204	      0.00000000	    -59.53976044	     -2.77530633	     -8.37020421	     84.48770464	     -7.76168228	     17.91116141	     45.32457827	      4.10217367	      0.00000000	      0.00000000	     86.49894219	    -27.61081626	     35.14085947	     61.23840463	     88.69181108	      0.00000000	      0.00000000
